<?xml version="1.0" encoding="UTF-8"?>
<!DOCTYPE svg PUBLIC "-//W3C//DTD SVG 1.1//EN" "http://www.w3.org/Graphics/SVG/1.1/DTD/svg11.dtd">
<svg xmlns="http://www.w3.org/2000/svg" version="1.1" width="442px" height="518px" style="shape-rendering:geometricPrecision; text-rendering:geometricPrecision; image-rendering:optimizeQuality; fill-rule:evenodd; clip-rule:evenodd" xmlns:xlink="http://www.w3.org/1999/xlink">
<g><path style="opacity:0.978" fill="#010000" d="M 87.5,2.5 C 176.834,2.33334 266.167,2.5 355.5,3C 402.125,11.9577 429.625,39.7911 438,86.5C 438.667,201.167 438.667,315.833 438,430.5C 429.625,477.209 402.125,505.042 355.5,514C 266.167,514.667 176.833,514.667 87.5,514C 48.0841,506.918 21.9174,484.418 9,446.5C 6.47439,437.679 5.14105,428.679 5,419.5C 4.02696,307.819 4.3603,196.152 6,84.5C 15.3467,39.3203 42.5134,11.9869 87.5,2.5 Z"/></g>
<g><path style="opacity:1" fill="#c8ccd4" d="M 89.5,18.5 C 176.501,18.3333 263.501,18.5 350.5,19C 389.312,25.4783 412.812,47.9783 421,86.5C 424.253,124.841 409.086,153.007 375.5,171C 367.778,174.264 359.778,176.597 351.5,178C 264.5,178.667 177.5,178.667 90.5,178C 65.0993,173.396 45.5993,160.229 32,138.5C 15.1182,104.934 18.4516,73.6006 42,44.5C 55.2213,30.9743 71.0547,22.3077 89.5,18.5 Z"/></g>
<g><path style="opacity:1" fill="#010102" d="M 90.5,26.5 C 179.193,26.0181 267.86,26.5181 356.5,28C 387.314,36.4801 406.147,56.3135 413,87.5C 416.017,122.308 402.184,147.808 371.5,164C 364.397,166.812 357.064,168.812 349.5,170C 263.833,170.667 178.167,170.667 92.5,170C 60.1934,164.027 39.6934,145.194 31,113.5C 26.1687,67.5162 46.002,38.5162 90.5,26.5 Z"/></g>
<g><path style="opacity:1" fill="#a9b1bc" d="M 92.5,42.5 C 179.531,42.0158 266.531,42.5158 353.5,44C 377.527,50.0276 392.027,65.1943 397,89.5C 399.465,117.417 388.298,137.584 363.5,150C 358.372,152.093 353.038,153.426 347.5,154C 262.5,154.667 177.5,154.667 92.5,154C 77.684,150.681 65.5174,143.181 56,131.5C 37.9564,100.055 43.1231,73.2213 71.5,51C 78.1874,47.0569 85.1874,44.2235 92.5,42.5 Z"/></g>
<g><path style="opacity:1" fill="#020202" d="M 93.5,58.5 C 113.503,58.3334 133.503,58.5 153.5,59C 178.33,63.5034 190.163,78.3367 189,103.5C 185.5,123 174,134.5 154.5,138C 134.833,138.667 115.167,138.667 95.5,138C 71.1403,131.619 59.9736,115.786 62,90.5C 66.6827,73.9848 77.1827,63.3181 93.5,58.5 Z"/></g>
<g><path style="opacity:1" fill="#c8cdd5" d="M 95.5,74.5 C 100.179,74.3342 104.845,74.5008 109.5,75C 98.9779,90.6006 98.9779,106.267 109.5,122C 94.2071,124.693 83.7071,118.86 78,104.5C 75.8358,93.9907 79.0024,85.4907 87.5,79C 90.0993,77.205 92.7659,75.705 95.5,74.5 Z"/></g>
<g><path style="opacity:1" fill="#a8b0bb" d="M 135.5,74.5 C 144,73.934 152.333,74.7674 160.5,77C 174.366,86.1931 177.199,98.0264 169,112.5C 159.839,122.087 148.672,125.253 135.5,122C 120.307,116.088 114.807,105.254 119,89.5C 122.822,82.5043 128.322,77.5043 135.5,74.5 Z"/></g>
<g><path style="opacity:1" fill="#e3e6ea" d="M 26.5,158.5 C 41.3236,176.592 60.3236,188.092 83.5,193C 129.136,194.151 174.802,194.651 220.5,194.5C 264.167,194.333 307.833,194.167 351.5,194C 377.913,190.144 399.58,178.644 416.5,159.5C 403.926,188.565 381.926,205.399 350.5,210C 263.833,210.667 177.167,210.667 90.5,210C 59.741,204.395 38.4077,187.228 26.5,158.5 Z"/></g>
<g><path style="opacity:1" fill="#ec5464" d="M 21.5,184.5 C 36.9874,205.755 57.654,219.255 83.5,225C 129.302,226.152 175.136,226.652 221,226.5C 264.833,226.333 308.667,226.167 352.5,226C 381.43,221.963 404.264,208.13 421,184.5C 421.667,255.5 421.667,326.5 421,397.5C 413.515,435.652 390.682,458.485 352.5,466C 265.167,466.667 177.833,466.667 90.5,466C 52.3333,458.5 29.5,435.667 22,397.5C 21.5,326.501 21.3333,255.501 21.5,184.5 Z"/></g>
<g><path style="opacity:1" fill="#020101" d="M 122.5,258.5 C 126.192,257.971 129.358,258.971 132,261.5C 134.498,270.823 136.998,280.156 139.5,289.5C 146.557,290.885 153.557,290.718 160.5,289C 179.404,281.2 198.404,273.7 217.5,266.5C 237.591,274.044 257.591,281.877 277.5,290C 283.528,290.83 289.528,290.664 295.5,289.5C 298.002,280.156 300.502,270.823 303,261.5C 307.333,257.5 311.667,257.5 316,261.5C 324,274.833 332,288.167 340,301.5C 341.422,304.03 341.755,306.697 341,309.5C 335.205,318.926 329.038,328.092 322.5,337C 310.267,338.46 297.934,338.96 285.5,338.5C 285.973,356.261 285.473,373.927 284,391.5C 272.833,405.333 261.667,419.167 250.5,433C 239.593,434.146 228.593,434.646 217.5,434.5C 206.407,434.646 195.407,434.146 184.5,433C 173.333,419.167 162.167,405.333 151,391.5C 149.527,373.927 149.027,356.261 149.5,338.5C 137.066,338.96 124.733,338.46 112.5,337C 105.962,328.092 99.795,318.926 94,309.5C 93.245,306.697 93.5783,304.03 95,301.5C 103,288.167 111,274.833 119,261.5C 120.145,260.364 121.312,259.364 122.5,258.5 Z"/></g>
<g><path style="opacity:1" fill="#955252" d="M 215.5,283.5 C 217.927,283.523 220.26,284.023 222.5,285C 237.975,291.74 253.641,297.907 269.5,303.5C 269.5,330.5 269.5,357.5 269.5,384.5C 259.626,380.564 249.959,376.064 240.5,371C 225.167,370.333 209.833,370.333 194.5,371C 185.041,376.064 175.374,380.564 165.5,384.5C 165.167,357.492 165.5,330.492 166.5,303.5C 183.036,297.057 199.369,290.39 215.5,283.5 Z"/></g>
<g><path style="opacity:1" fill="#fbcea3" d="M 121.5,287.5 C 122.117,287.611 122.617,287.944 123,288.5C 124.158,292.797 125.158,297.131 126,301.5C 126.465,302.931 127.299,304.097 128.5,305C 135.385,306.425 142.385,306.925 149.5,306.5C 149.5,311.833 149.5,317.167 149.5,322.5C 139.917,322.818 130.417,322.485 121,321.5C 117.701,316.4 114.535,311.234 111.5,306C 115.075,299.935 118.408,293.769 121.5,287.5 Z"/></g>
<g><path style="opacity:1" fill="#fbcea3" d="M 312.5,287.5 C 316.319,293.507 319.986,299.673 323.5,306C 320.465,311.234 317.299,316.4 314,321.5C 304.583,322.485 295.083,322.818 285.5,322.5C 285.5,317.167 285.5,311.833 285.5,306.5C 292.615,306.925 299.615,306.425 306.5,305C 307.701,304.097 308.535,302.931 309,301.5C 309.862,296.719 311.029,292.053 312.5,287.5 Z"/></g>
<g><path style="opacity:1" fill="#050202" d="M 186.5,322.5 C 192.434,321.889 198.1,322.722 203.5,325C 206.573,330.305 205.573,334.638 200.5,338C 195.051,338.896 189.718,338.563 184.5,337C 180.062,331.373 180.729,326.54 186.5,322.5 Z"/></g>
<g><path style="opacity:1" fill="#050202" d="M 234.5,322.5 C 240.434,321.889 246.1,322.722 251.5,325C 254.573,330.305 253.573,334.638 248.5,338C 243.051,338.896 237.718,338.563 232.5,337C 228.128,331.408 228.794,326.575 234.5,322.5 Z"/></g>
<g><path style="opacity:1" fill="#fbcea3" d="M 198.5,386.5 C 211.171,386.333 223.838,386.5 236.5,387C 243.856,390.341 250.856,394.175 257.5,398.5C 252.741,405.015 247.741,411.348 242.5,417.5C 225.833,418.833 209.167,418.833 192.5,417.5C 187.259,411.348 182.259,405.015 177.5,398.5C 184.365,394.235 191.365,390.235 198.5,386.5 Z"/></g>
<g><path style="opacity:1" fill="#0b0907" d="M 202.5,394.5 C 210.658,393.823 214.158,397.49 213,405.5C 210.774,409.861 207.274,411.361 202.5,410C 195.89,404.802 195.89,399.636 202.5,394.5 Z"/></g>
<g><path style="opacity:1" fill="#0b0907" d="M 226.5,394.5 C 234.658,393.823 238.158,397.49 237,405.5C 234.774,409.861 231.274,411.361 226.5,410C 219.89,404.802 219.89,399.636 226.5,394.5 Z"/></g>
<g><path style="opacity:1" fill="#e3e6ea" d="M 26.5,446.5 C 41.3619,464.608 60.3619,476.108 83.5,481C 128.639,482.149 173.806,482.649 219,482.5C 261.833,482.333 304.667,482.167 347.5,482C 375.444,479.78 398.277,467.947 416,446.5C 409.317,464.196 397.817,478.03 381.5,488C 374.138,491.787 366.471,494.787 358.5,497C 312.691,498.146 266.858,498.646 221,498.5C 177.833,498.333 134.667,498.167 91.5,498C 60.2001,492.855 38.5335,475.688 26.5,446.5 Z"/></g>
</svg>
